<svg xmlns="http://www.w3.org/2000/svg" xmlns:xlink="http://www.w3.org/1999/xlink" width="250" zoomAndPan="magnify" viewBox="0 0 187.5 82.499998" height="110" preserveAspectRatio="xMidYMid meet" version="1.0"><defs><g/><clipPath id="id1"><path d="M 33.53125 14.390625 L 54.460938 14.390625 L 54.460938 67.460938 L 33.53125 67.460938 Z M 33.53125 14.390625 " clip-rule="nonzero"/></clipPath><clipPath id="id2"><path d="M 56.332031 14.753906 L 79.503906 14.753906 L 79.503906 67.464844 L 56.332031 67.464844 Z M 56.332031 14.753906 " clip-rule="nonzero"/></clipPath><clipPath id="id3"><path d="M 8.441406 14.394531 L 31.554688 14.394531 L 31.554688 67.464844 L 8.441406 67.464844 Z M 8.441406 14.394531 " clip-rule="nonzero"/></clipPath></defs><g clip-path="url(#id1)"><path fill="#000000" d="M 33.53125 14.394531 L 54.460938 14.394531 L 54.460938 67.457031 L 33.53125 67.457031 L 33.53125 14.394531 " fill-opacity="1" fill-rule="nonzero"/></g><g clip-path="url(#id2)"><path fill="#000000" d="M 79.601562 54.550781 L 56.429688 67.8125 L 33.257812 54.550781 L 33.257812 28.027344 L 56.429688 14.769531 L 79.601562 28.027344 Z M 79.601562 54.550781 " fill-opacity="1" fill-rule="nonzero"/></g><g clip-path="url(#id3)"><path fill="#000000" d="M 8.441406 27.667969 L 31.613281 14.40625 L 54.78125 27.667969 L 54.78125 54.1875 L 31.613281 67.449219 L 8.441406 54.1875 Z M 8.441406 27.667969 " fill-opacity="1" fill-rule="nonzero"/></g><path fill="#ffffff" d="M 18.867188 44.1875 C 18.683594 44.125 18.5 44.066406 18.320312 44 C 18.261719 43.980469 18.210938 43.960938 18.160156 43.9375 C 18.105469 44.414062 17.996094 44.878906 17.925781 45.34375 C 17.890625 45.585938 17.824219 45.910156 17.792969 46.191406 C 17.839844 46.140625 17.882812 46.089844 17.925781 46.035156 C 18.117188 45.8125 18.183594 45.558594 18.304688 45.292969 C 18.480469 44.914062 18.660156 44.546875 18.867188 44.1875 Z M 18.882812 43.351562 C 19.277344 42.914062 19.605469 42.402344 20.011719 41.996094 C 18.960938 39.890625 18.082031 37.625 17.523438 35.339844 C 17.222656 34.128906 16.671875 32.949219 16.171875 31.753906 C 16.414062 32.726562 16.691406 33.6875 16.75 34.535156 C 16.84375 35.851562 17.324219 37.027344 17.324219 38.363281 C 17.324219 39.570312 17.472656 40.761719 17.796875 41.921875 C 17.914062 42.347656 17.914062 43.199219 18.511719 43.304688 C 18.628906 43.324219 18.75 43.355469 18.867188 43.375 C 18.871094 43.367188 18.875 43.363281 18.882812 43.351562 Z M 23.71875 41.84375 C 23.792969 41.019531 23.757812 40.109375 23.960938 39.300781 C 23.707031 39.191406 23.335938 39.171875 23.070312 39.121094 C 22.769531 39.054688 22.496094 38.9375 22.171875 38.90625 C 21.746094 38.863281 21.347656 38.726562 20.917969 38.6875 C 20.816406 38.675781 20.738281 38.65625 20.664062 38.636719 C 20.925781 39.414062 21.167969 40.714844 21.640625 41.289062 C 22.253906 41.34375 23.070312 41.617188 23.71875 41.84375 Z M 24.207031 38.625 C 24.253906 38.535156 24.304688 38.449219 24.363281 38.363281 C 23.648438 38.242188 23.011719 37.914062 22.34375 37.667969 C 22.320312 37.6875 22.308594 37.710938 22.277344 37.726562 C 22.140625 37.808594 22.023438 37.839844 21.863281 37.828125 C 21.726562 37.820312 21.582031 37.933594 21.4375 37.929688 C 21.425781 37.929688 21.410156 37.929688 21.398438 37.929688 C 21.386719 37.945312 21.371094 37.960938 21.359375 37.976562 C 21.402344 37.976562 21.445312 37.980469 21.492188 37.984375 C 21.820312 38.027344 22.21875 38.140625 22.535156 38.222656 C 23.085938 38.371094 23.679688 38.414062 24.207031 38.625 Z M 34.664062 35.847656 C 34.808594 35.824219 34.945312 35.789062 35.085938 35.757812 C 34.582031 35.761719 34.085938 35.75 33.628906 35.789062 C 32.03125 35.929688 30.261719 35.640625 28.738281 36.277344 C 27.667969 36.726562 26.324219 37.078125 25.164062 37.1875 C 24.667969 37.234375 23.800781 36.871094 23.253906 36.722656 C 22.675781 36.570312 22.128906 36.394531 21.546875 36.414062 C 21.808594 36.648438 22.339844 36.859375 22.882812 37.066406 C 23.460938 37.285156 24.890625 37.683594 24.890625 37.683594 C 24.953125 37.683594 24.996094 37.710938 25.039062 37.746094 C 26.085938 37.183594 27.898438 37.257812 28.824219 36.976562 C 30.695312 36.40625 32.746094 36.195312 34.664062 35.847656 Z M 34.714844 34.972656 C 35.136719 34.96875 35.667969 35.011719 36.167969 34.96875 C 35.160156 34.414062 34.167969 33.703125 33.039062 33.621094 C 31.117188 33.472656 29.492188 33.972656 27.617188 34.28125 C 25.921875 34.5625 24.039062 34.703125 22.4375 35.324219 C 22.101562 35.453125 21.863281 35.578125 21.691406 35.695312 C 22.566406 35.707031 23.417969 35.988281 24.304688 36.105469 C 25.105469 36.210938 25.402344 36.445312 26.300781 36.210938 C 26.917969 36.046875 27.648438 35.957031 28.234375 35.710938 C 29.519531 35.175781 30.808594 35.144531 32.179688 35.109375 C 33.023438 35.089844 33.878906 34.984375 34.714844 34.972656 Z M 42.042969 25.972656 C 41.996094 25.945312 41.957031 25.90625 41.921875 25.847656 C 41.652344 25.378906 37.960938 25.976562 37.53125 26.058594 C 36.597656 26.246094 35.53125 26.339844 34.582031 26.390625 C 33.429688 26.449219 32.300781 26.707031 31.140625 26.773438 C 30.25 26.820312 29.335938 26.746094 28.453125 26.847656 C 26.433594 27.078125 24.339844 27.15625 22.3125 27.292969 C 21.394531 27.351562 16.359375 27.28125 16.089844 28.339844 C 16.070312 28.433594 16.015625 28.496094 15.949219 28.539062 C 16.121094 29.820312 16.890625 30.941406 17.222656 32.167969 C 17.535156 33.3125 17.957031 34.46875 18.316406 35.59375 C 18.957031 37.625 19.65625 39.628906 20.59375 41.542969 C 20.679688 41.492188 20.765625 41.449219 20.863281 41.410156 C 20.371094 40.539062 20.191406 39.300781 19.804688 38.429688 C 19.246094 37.167969 18.796875 35.789062 18.519531 34.4375 C 18.214844 32.96875 17.441406 31.390625 17.324219 29.914062 C 17.238281 28.742188 17.382812 28.554688 18.453125 28.289062 C 19.082031 28.132812 19.769531 28.164062 20.414062 28.132812 C 21.285156 28.09375 22.128906 27.78125 23.011719 27.742188 C 25.234375 27.652344 27.402344 27.457031 29.617188 27.234375 C 31.90625 27 34.207031 26.964844 36.492188 26.714844 C 38.351562 26.519531 40.175781 26.097656 42.042969 25.972656 Z M 42.878906 31.4375 C 42.878906 31.425781 42.875 31.417969 42.871094 31.40625 C 42.835938 30.574219 42.476562 29.84375 42.46875 29.007812 C 42.464844 28.246094 42.230469 27.460938 42.105469 26.691406 C 40.445312 26.804688 38.832031 27.1875 37.175781 27.367188 C 35.347656 27.566406 33.511719 27.648438 31.679688 27.78125 C 29.628906 27.929688 27.585938 28.339844 25.539062 28.402344 C 23.917969 28.449219 22.3125 28.769531 20.714844 28.839844 C 20.128906 28.867188 19.546875 28.914062 18.957031 28.964844 C 17.535156 29.085938 18.039062 30.011719 18.378906 31.085938 C 18.761719 32.285156 18.984375 33.457031 19.289062 34.675781 C 19.503906 35.53125 19.8125 36.367188 20.128906 37.195312 C 20.148438 37.195312 20.164062 37.1875 20.179688 37.1875 C 20.488281 37.1875 20.765625 37.171875 21.066406 37.183594 C 20.765625 37.015625 20.515625 36.78125 20.417969 36.425781 C 20.035156 35.03125 22.964844 34.335938 23.777344 34.214844 C 26.304688 33.835938 28.949219 32.851562 31.496094 32.851562 C 32.601562 32.851562 33.414062 32.925781 34.398438 33.25 C 36.160156 31.488281 39.574219 32.097656 41.820312 31.601562 C 42.164062 31.523438 42.515625 31.472656 42.878906 31.4375 Z M 43.59375 31.410156 C 43.792969 31.410156 43.988281 31.421875 44.179688 31.4375 C 43.855469 30.402344 43.539062 29.316406 43.144531 28.269531 C 43.179688 28.515625 43.203125 28.765625 43.195312 29.007812 C 43.171875 29.816406 43.5625 30.582031 43.59375 31.40625 Z M 45.410156 48.144531 C 45.09375 47.847656 44.761719 47.492188 44.550781 47.289062 C 44.425781 47.164062 44.273438 47.050781 44.273438 46.859375 C 44.273438 46.839844 44.277344 46.828125 44.277344 46.8125 C 44.277344 46.8125 44.273438 46.8125 44.273438 46.8125 C 44.050781 46.632812 43.800781 46.492188 43.519531 46.394531 C 42.726562 46.078125 41.996094 45.660156 41.203125 45.332031 C 39.738281 44.726562 38.300781 43.992188 36.820312 43.429688 C 35.238281 42.828125 33.886719 41.890625 32.523438 40.914062 C 32.046875 40.574219 31.464844 40.246094 31.019531 39.816406 C 30.386719 40.234375 30.363281 41.09375 30.21875 41.804688 C 30.152344 42.160156 30.121094 42.519531 30.101562 42.882812 C 30.085938 43.117188 29.917969 43.335938 29.863281 43.558594 C 30.746094 43.8125 31.621094 44.089844 32.460938 44.433594 C 34.800781 45.386719 37.203125 45.960938 39.617188 46.65625 C 41.023438 47.054688 42.464844 47.289062 43.875 47.6875 C 44.179688 47.773438 44.792969 47.988281 45.410156 48.144531 Z M 46.371094 54.355469 C 46.464844 53.703125 46.53125 53.046875 46.613281 52.390625 C 46.453125 52.410156 46.292969 52.429688 46.132812 52.433594 C 45.988281 52.441406 45.839844 52.433594 45.6875 52.425781 C 45.902344 53.472656 46.007812 54.519531 46.164062 55.574219 C 46.179688 55.441406 46.203125 55.308594 46.21875 55.175781 C 46.257812 54.898438 46.328125 54.628906 46.371094 54.355469 Z M 44.695312 33.015625 C 45.28125 32.984375 46.277344 33.117188 47.015625 33.046875 C 46.371094 32.679688 45.445312 32.414062 44.949219 32.292969 C 43.703125 31.996094 42.390625 32.210938 41.15625 32.433594 C 39.496094 32.730469 36.914062 32.441406 35.386719 33.390625 C 37.859375 34.714844 40.019531 33.648438 42.523438 33.277344 C 43.238281 33.167969 43.980469 33.054688 44.695312 33.015625 Z M 47.113281 33.824219 C 47.132812 33.792969 47.152344 33.761719 47.171875 33.730469 C 46.519531 33.78125 45.785156 33.675781 45.179688 33.707031 C 43.925781 33.78125 42.652344 33.996094 41.429688 34.273438 C 39.972656 34.601562 38.6875 34.886719 37.378906 34.757812 C 37.523438 34.851562 37.601562 35.03125 37.554688 35.1875 C 37.667969 35.171875 37.777344 35.160156 37.890625 35.152344 C 39.84375 35.070312 41.847656 34.820312 43.773438 34.445312 C 44.734375 34.257812 46.015625 33.785156 47.113281 33.824219 Z M 49.4375 35.609375 C 49.984375 35.53125 50.558594 35.46875 51.125 35.367188 C 50.148438 35.183594 49.179688 34.953125 48.210938 34.78125 C 45.335938 34.277344 42.351562 35.796875 39.445312 35.828125 C 36.71875 35.859375 33.988281 36.796875 31.28125 37.214844 C 29.578125 37.480469 27.75 37.808594 26.074219 38.21875 C 24.417969 38.617188 24.546875 40.691406 24.410156 42.082031 C 24.421875 42.082031 24.429688 42.085938 24.4375 42.085938 C 25.976562 42.570312 27.582031 42.9375 29.164062 43.363281 C 29.347656 42.5625 29.515625 41.757812 29.660156 40.925781 C 29.738281 40.453125 29.855469 39.976562 30.058594 39.539062 C 30.128906 39.382812 30.367188 39.289062 30.5625 39.214844 C 30.511719 39.117188 30.464844 39.019531 30.429688 38.914062 C 30.375 38.742188 30.441406 38.613281 30.554688 38.539062 C 30.59375 38.460938 30.664062 38.40625 30.773438 38.378906 C 32.925781 37.878906 35.050781 38.027344 37.242188 37.835938 C 37.246094 37.832031 37.25 37.828125 37.253906 37.824219 C 38.125 37.277344 39.347656 37.285156 40.476562 37.328125 C 40.511719 37.253906 40.582031 37.1875 40.691406 37.15625 C 42.488281 36.65625 44.609375 36.144531 46.492188 36.105469 C 47.535156 36.082031 48.433594 35.742188 49.4375 35.609375 Z M 55.839844 36.339844 C 54.835938 36.074219 53.835938 35.765625 52.808594 35.628906 C 52.773438 35.671875 52.726562 35.707031 52.660156 35.730469 C 50.777344 36.390625 48.816406 36.675781 46.824219 36.675781 C 46.414062 36.675781 44.148438 36.785156 44.1875 37.277344 C 45 37.320312 45.78125 37.160156 46.59375 37.160156 C 47.089844 37.160156 47.554688 37.105469 48.039062 37.039062 C 48.597656 36.960938 49.117188 36.738281 49.679688 36.683594 C 50.351562 36.617188 51.03125 36.601562 51.703125 36.601562 C 53.113281 36.601562 54.445312 36.441406 55.839844 36.339844 Z M 68.738281 38.230469 C 68.175781 38 67.582031 37.824219 67 37.824219 C 66.824219 37.824219 66.730469 37.699219 66.621094 37.578125 C 66.511719 37.464844 66.359375 37.359375 66.171875 37.269531 C 66.164062 37.269531 66.15625 37.269531 66.144531 37.265625 C 64.085938 36.585938 62.40625 37.476562 60.527344 38.113281 C 58.722656 38.726562 56.671875 39.445312 54.789062 39.707031 C 54.332031 39.773438 54.132812 39.074219 54.59375 39.011719 C 56.488281 38.746094 58.59375 38.082031 60.433594 37.359375 C 58.34375 37.695312 56.21875 37.863281 54.15625 38.300781 C 51.085938 38.949219 48.097656 39.445312 44.957031 39.449219 C 44.484375 39.449219 44.488281 38.726562 44.957031 38.726562 C 48.25 38.722656 51.273438 37.972656 54.503906 37.476562 C 56.152344 37.222656 57.839844 37.046875 59.511719 36.800781 C 57.964844 36.851562 56.421875 36.960938 54.921875 37.175781 C 53.636719 37.359375 52.347656 37.324219 51.050781 37.324219 C 49.480469 37.324219 48.007812 37.5625 46.457031 37.703125 C 45.183594 37.816406 43.875 38.09375 42.601562 38.09375 C 41.273438 38.09375 38.882812 37.738281 37.691406 38.410156 C 37.632812 38.484375 37.546875 38.535156 37.433594 38.546875 C 35.359375 38.738281 33.3125 38.601562 31.265625 39.015625 C 31.859375 40.003906 33.6875 40.871094 34.582031 41.398438 C 35.890625 42.15625 37.1875 42.804688 38.570312 43.429688 C 39.824219 44 41.140625 44.433594 42.375 45.054688 C 43.132812 45.4375 44.214844 45.671875 44.835938 46.292969 C 44.921875 46.378906 45 46.511719 45 46.636719 C 45 46.703125 45.75 47.277344 45.753906 47.28125 C 46.503906 48.027344 46.414062 48.179688 47.40625 46.859375 C 47.589844 46.613281 47.917969 46.414062 48.191406 46.28125 C 49.28125 45.761719 50.671875 45.933594 51.832031 45.652344 C 52.933594 45.390625 53.546875 44.570312 54.421875 43.945312 C 55.113281 43.207031 56.1875 42.980469 57.046875 42.480469 C 58.203125 41.804688 59.273438 40.941406 60.488281 40.355469 C 61.894531 39.675781 62.824219 38.691406 64.121094 38.113281 C 61.742188 38.160156 59.628906 39.953125 57.234375 40.429688 C 56.777344 40.523438 56.582031 39.824219 57.039062 39.734375 C 57.976562 39.546875 58.914062 39.292969 59.765625 38.859375 C 60.195312 38.636719 60.472656 38.414062 60.941406 38.335938 C 61.460938 38.246094 61.921875 37.976562 62.429688 37.863281 C 63.015625 37.730469 63.589844 37.558594 64.179688 37.464844 C 64.902344 37.347656 65.769531 37.589844 66.421875 37.875 C 66.851562 38.054688 66.480469 38.679688 66.058594 38.496094 C 65.957031 38.453125 65.855469 38.410156 65.753906 38.378906 C 65.734375 38.382812 65.726562 38.394531 65.703125 38.398438 C 64.996094 38.507812 64.445312 38.675781 63.933594 38.9375 C 65.542969 38.765625 67.136719 38.496094 68.738281 38.230469 Z M 71.027344 41.246094 C 71.117188 41.179688 70.980469 40.253906 70.949219 40.140625 C 70.875 39.796875 70.683594 39.59375 70.496094 39.347656 C 69.632812 38.609375 68.113281 39.023438 67.019531 39.167969 C 65.632812 39.351562 64.34375 39.652344 62.933594 39.769531 C 62.878906 39.773438 62.828125 39.765625 62.785156 39.75 C 62.714844 39.808594 62.652344 39.867188 62.578125 39.929688 C 61.964844 40.496094 61.167969 40.777344 60.46875 41.230469 C 59.476562 41.867188 58.46875 42.566406 57.410156 43.105469 C 56.5625 43.539062 55.429688 43.820312 54.808594 44.585938 C 54.746094 44.664062 54.675781 44.703125 54.597656 44.707031 C 53.707031 45.386719 53.277344 46.027344 52.027344 46.351562 C 50.652344 46.707031 48.6875 46.347656 47.757812 47.582031 C 47.640625 47.738281 47.453125 47.964844 47.226562 48.171875 C 51.128906 47.386719 54.929688 46.230469 58.777344 45.226562 C 62.894531 44.148438 66.855469 42.957031 70.871094 41.519531 C 70.878906 41.417969 70.925781 41.320312 71.027344 41.246094 Z M 72.125 45.796875 C 72.203125 45.542969 72.199219 45.265625 72.195312 44.988281 C 71.945312 45.160156 71.648438 45.300781 71.328125 45.40625 C 71.425781 45.871094 71.523438 46.34375 71.617188 46.8125 C 71.671875 47.085938 71.6875 47.417969 71.808594 47.671875 C 71.824219 47.707031 71.832031 47.742188 71.835938 47.777344 C 72.054688 47.277344 72.0625 46.011719 72.125 45.796875 Z M 69.921875 44.949219 C 70.726562 44.722656 72.269531 44.601562 72.234375 43.339844 C 72.226562 42.933594 72.199219 42.53125 72.179688 42.128906 C 72.164062 42.125 72.140625 42.125 72.128906 42.109375 C 72.027344 42.035156 71.859375 42.082031 71.738281 42.066406 C 71.671875 42.058594 71.609375 42.042969 71.542969 42.03125 C 71.527344 42.039062 71.515625 42.050781 71.5 42.054688 C 69.082031 42.933594 66.691406 43.777344 64.253906 44.585938 C 62.386719 45.207031 60.414062 45.449219 58.535156 46.066406 C 54.933594 47.257812 51.074219 48.140625 47.363281 48.882812 C 47.34375 48.886719 47.332031 48.882812 47.320312 48.882812 C 46.675781 49.191406 46.003906 48.824219 45.316406 48.75 C 44.179688 48.636719 42.820312 48.304688 41.730469 47.976562 C 39.21875 47.226562 36.667969 46.683594 34.171875 45.851562 C 33.042969 45.480469 31.945312 45.011719 30.820312 44.632812 C 29.519531 44.203125 28.1875 44.09375 26.890625 43.671875 C 25.425781 43.195312 23.980469 42.78125 22.496094 42.367188 C 21.515625 42.097656 20.792969 41.867188 20.179688 42.972656 C 20.074219 43.164062 19.875 43.367188 19.691406 43.558594 C 19.964844 43.621094 20.234375 43.691406 20.507812 43.773438 C 21.929688 44.203125 23.328125 44.691406 24.75 45.128906 C 28.191406 46.195312 31.628906 47.265625 35.074219 48.335938 C 38.441406 49.382812 41.796875 50.542969 45.195312 51.5 C 46.988281 52.003906 49.273438 51.023438 51.019531 50.515625 C 52.492188 50.085938 53.957031 49.617188 55.429688 49.179688 C 58.757812 48.1875 62.085938 47.210938 65.417969 46.242188 C 66.921875 45.804688 68.417969 45.363281 69.921875 44.949219 Z M 17.59375 47.175781 C 16.945312 47.207031 17.058594 46.703125 17.058594 46.226562 C 17.058594 45.863281 17.167969 45.347656 17.285156 44.992188 C 17.410156 44.613281 17.453125 43.964844 17.464844 43.5625 C 17.464844 43.53125 17.476562 43.511719 17.480469 43.484375 C 17.398438 43.316406 17.367188 43.074219 17.25 42.664062 C 16.902344 41.414062 16.601562 40.113281 16.601562 38.808594 C 16.601562 37.339844 16.1875 35.980469 16.023438 34.535156 C 15.820312 32.675781 14.761719 30.316406 15.203125 28.40625 C 15.203125 28.398438 15.199219 28.386719 15.199219 28.378906 C 15.1875 28.261719 15.222656 28.179688 15.28125 28.121094 C 15.289062 28.101562 15.292969 28.078125 15.304688 28.054688 C 15.34375 27.941406 15.417969 27.871094 15.511719 27.835938 C 16.269531 26.375 19.390625 26.90625 20.714844 26.71875 C 23.265625 26.355469 25.875 26.164062 28.453125 26.125 C 31.183594 26.085938 34.070312 25.945312 36.75 25.40625 C 38.203125 25.117188 39.722656 25.078125 41.195312 25.078125 C 41.738281 25.078125 42.148438 24.953125 42.464844 25.359375 C 42.507812 25.386719 42.558594 25.425781 42.59375 25.484375 C 42.707031 25.652344 42.808594 25.832031 42.910156 26.011719 C 42.976562 26.0625 43.015625 26.136719 43.03125 26.222656 C 43.917969 27.878906 44.414062 29.808594 44.984375 31.570312 C 45.238281 31.628906 45.488281 31.703125 45.734375 31.804688 C 46.429688 32.097656 47.578125 32.367188 48.066406 32.957031 C 48.191406 33.117188 48.210938 33.371094 48.03125 33.496094 C 48.027344 33.507812 48.023438 33.523438 48.023438 33.535156 C 47.964844 33.671875 47.933594 33.816406 47.871094 33.949219 C 47.871094 33.949219 47.871094 33.949219 47.867188 33.953125 C 49.46875 34.480469 51.394531 34.746094 53.058594 34.929688 C 54.6875 35.109375 56.226562 35.8125 57.824219 36.027344 C 57.953125 36.042969 58.027344 36.117188 58.0625 36.203125 C 59.167969 36.136719 60.285156 36.078125 61.394531 36.015625 C 61.960938 35.980469 62.503906 36.019531 63.039062 36.074219 C 63.125 36.050781 63.195312 36.0625 63.257812 36.089844 C 63.875 36.15625 64.480469 36.230469 65.109375 36.238281 C 65.703125 36.25 67.035156 36.230469 67.191406 37.046875 C 67.195312 37.070312 69.71875 37.878906 70.046875 38.054688 C 70.160156 38.113281 70.210938 38.199219 70.226562 38.289062 C 70.730469 38.472656 71.140625 38.84375 71.433594 39.367188 C 71.445312 39.378906 71.453125 39.394531 71.464844 39.414062 C 71.535156 39.546875 71.605469 39.695312 71.664062 39.851562 C 71.699219 39.949219 71.6875 40.027344 71.65625 40.097656 C 71.671875 40.238281 71.683594 40.382812 71.699219 40.53125 C 71.730469 40.820312 71.777344 41.089844 71.734375 41.332031 C 71.789062 41.339844 71.847656 41.347656 71.90625 41.347656 C 72.101562 41.355469 72.328125 41.367188 72.492188 41.488281 C 72.570312 41.542969 72.625 41.617188 72.652344 41.699219 C 72.785156 41.742188 72.890625 41.851562 72.898438 42.023438 C 72.929688 42.660156 73.046875 43.40625 72.867188 44.039062 C 72.929688 44.117188 72.957031 44.21875 72.933594 44.335938 C 72.835938 44.804688 73.019531 45.335938 72.886719 45.78125 C 72.734375 46.292969 72.785156 46.839844 72.644531 47.359375 C 72.441406 48.101562 72.578125 48.6875 71.628906 48.710938 C 71.421875 48.71875 71.3125 48.578125 71.289062 48.421875 C 71.28125 48.410156 71.277344 48.410156 71.269531 48.398438 C 71.078125 48.09375 71.035156 47.570312 70.964844 47.230469 C 70.855469 46.691406 70.746094 46.144531 70.625 45.605469 C 69.996094 45.757812 69.351562 45.859375 68.867188 45.996094 C 64.882812 47.144531 60.898438 48.316406 56.921875 49.492188 C 55.015625 50.054688 53.121094 50.671875 51.210938 51.210938 C 49.953125 51.566406 48.640625 52.046875 47.328125 52.285156 C 47.332031 52.320312 47.335938 52.34375 47.332031 52.382812 C 47.179688 53.492188 46.898438 54.691406 46.878906 55.808594 C 46.867188 56.558594 45.90625 56.984375 45.90625 56.984375 C 45.769531 56.984375 45.679688 56.878906 45.648438 56.746094 C 45.632812 56.710938 45.613281 56.675781 45.601562 56.628906 C 45.339844 55.1875 45.242188 53.738281 44.921875 52.308594 C 43.613281 52.015625 42.179688 51.304688 41.066406 50.957031 C 39.230469 50.386719 37.398438 49.816406 35.566406 49.246094 C 31.175781 47.882812 27.089844 46.667969 23.347656 45.4375 C 22.125 45.039062 20.816406 44.757812 19.566406 44.398438 C 19.558594 44.421875 19.558594 44.445312 19.542969 44.464844 C 19.28125 44.90625 19.011719 45.382812 18.855469 45.871094 C 18.710938 46.347656 18.289062 46.628906 18.046875 47.039062 C 17.9375 47.230469 17.746094 47.246094 17.59375 47.175781 " fill-opacity="1" fill-rule="nonzero"/><path fill="#ffffff" d="M 48.292969 45.40625 C 48.363281 45.59375 48.21875 45.804688 48.039062 45.851562 C 47.847656 45.90625 47.679688 45.800781 47.605469 45.632812 C 47.601562 45.625 47.597656 45.613281 47.59375 45.601562 C 47.597656 45.609375 47.597656 45.613281 47.597656 45.617188 C 47.585938 45.59375 47.566406 45.542969 47.558594 45.53125 C 47.566406 45.542969 47.519531 45.484375 47.507812 45.464844 L 47.507812 45.460938 C 47.496094 45.449219 47.472656 45.429688 47.460938 45.414062 C 47.28125 45.414062 47.128906 45.222656 47.128906 45.054688 C 47.128906 44.835938 47.292969 44.714844 47.492188 44.691406 C 47.878906 44.640625 48.179688 45.097656 48.292969 45.40625 " fill-opacity="1" fill-rule="nonzero"/><path fill="#ffffff" d="M 46.082031 44.691406 C 46.1875 44.871094 46.113281 45.070312 45.953125 45.183594 C 45.824219 45.273438 45.789062 45.242188 45.710938 45.34375 C 45.675781 45.390625 45.632812 45.429688 45.589844 45.472656 C 45.574219 45.488281 45.558594 45.507812 45.542969 45.527344 C 45.511719 45.570312 45.507812 45.578125 45.53125 45.554688 C 45.496094 45.75 45.261719 45.855469 45.082031 45.808594 C 44.882812 45.75 44.800781 45.558594 44.832031 45.363281 C 44.871094 45.148438 45.050781 45.023438 45.171875 44.863281 C 45.242188 44.773438 45.316406 44.714844 45.40625 44.652344 C 45.453125 44.617188 45.507812 44.59375 45.5625 44.574219 C 45.609375 44.566406 45.617188 44.5625 45.585938 44.5625 C 45.75 44.445312 45.988281 44.53125 46.082031 44.691406 " fill-opacity="1" fill-rule="nonzero"/><path fill="#ffffff" d="M 39.746094 40.171875 C 40.109375 40.171875 40.109375 40.894531 39.746094 40.894531 C 39.746094 40.894531 39.523438 40.894531 39.429688 40.894531 C 39.28125 40.894531 39.1875 40.84375 39.132812 40.746094 C 39.105469 40.84375 39.03125 40.949219 38.890625 40.972656 C 38.476562 41.039062 38.089844 41.21875 37.683594 41.289062 C 37.296875 41.355469 36.921875 41.351562 36.527344 41.347656 C 36.066406 41.339844 36.0625 40.617188 36.527344 40.621094 C 36.96875 40.621094 37.417969 40.660156 37.832031 40.480469 C 38.105469 40.359375 38.402344 40.3125 38.699219 40.261719 C 38.882812 40.234375 39.019531 40.320312 39.097656 40.449219 C 39.132812 40.3125 39.242188 40.171875 39.429688 40.171875 C 39.523438 40.171875 39.746094 40.171875 39.746094 40.171875 " fill-opacity="1" fill-rule="nonzero"/><path fill="#ffffff" d="M 39.652344 38.90625 C 39.757812 39.082031 39.683594 39.285156 39.523438 39.398438 C 39.460938 39.441406 39.386719 39.464844 39.339844 39.492188 C 39.222656 39.585938 39.074219 39.621094 38.929688 39.535156 C 38.773438 39.441406 38.683594 39.199219 38.800781 39.039062 C 38.863281 38.953125 38.925781 38.878906 39.019531 38.832031 C 39.058594 38.816406 39.101562 38.800781 39.140625 38.785156 C 39.144531 38.785156 39.144531 38.78125 39.15625 38.777344 C 39.320312 38.660156 39.558594 38.742188 39.652344 38.90625 " fill-opacity="1" fill-rule="nonzero"/><path fill="#ffffff" d="M 37.710938 39.128906 C 38.175781 39.121094 38.171875 39.84375 37.710938 39.855469 C 37.035156 39.871094 36.394531 40.015625 35.75 40.1875 C 35.277344 40.316406 34.898438 40.574219 34.402344 40.621094 C 33.9375 40.671875 33.941406 39.949219 34.402344 39.902344 C 34.765625 39.863281 35.039062 39.628906 35.382812 39.535156 C 35.628906 39.472656 35.882812 39.441406 36.128906 39.359375 C 36.640625 39.191406 37.167969 39.144531 37.710938 39.128906 " fill-opacity="1" fill-rule="nonzero"/><g fill="#000000" fill-opacity="1"><g transform="translate(90.105971, 39.128847)"><g><path d="M 0.640625 -3.1875 L 0.640625 -6.859375 C 0.640625 -7.984375 0.945312 -8.804688 1.5625 -9.328125 C 2.175781 -9.859375 2.972656 -10.125 3.953125 -10.125 C 4.972656 -10.125 5.804688 -9.878906 6.453125 -9.390625 C 7.109375 -8.898438 7.4375 -8.222656 7.4375 -7.359375 C 7.4375 -6.960938 7.351562 -6.691406 7.1875 -6.546875 C 7.019531 -6.410156 6.742188 -6.34375 6.359375 -6.34375 C 5.660156 -6.34375 5.300781 -6.554688 5.28125 -6.984375 C 5.25 -7.816406 4.835938 -8.234375 4.046875 -8.234375 C 3.210938 -8.234375 2.796875 -7.773438 2.796875 -6.859375 L 2.796875 -3.1875 C 2.796875 -2.257812 3.21875 -1.796875 4.0625 -1.796875 C 4.3125 -1.796875 4.519531 -1.835938 4.6875 -1.921875 C 4.863281 -2.003906 4.988281 -2.128906 5.0625 -2.296875 C 5.132812 -2.472656 5.179688 -2.613281 5.203125 -2.71875 C 5.234375 -2.832031 5.257812 -2.988281 5.28125 -3.1875 C 5.3125 -3.613281 5.664062 -3.828125 6.34375 -3.828125 C 6.738281 -3.828125 7.019531 -3.753906 7.1875 -3.609375 C 7.351562 -3.472656 7.4375 -3.207031 7.4375 -2.8125 C 7.4375 -1.914062 7.109375 -1.207031 6.453125 -0.6875 C 5.804688 -0.175781 4.972656 0.078125 3.953125 0.078125 C 2.972656 0.078125 2.175781 -0.179688 1.5625 -0.703125 C 0.945312 -1.234375 0.640625 -2.0625 0.640625 -3.1875 Z M 0.640625 -3.1875 "/></g></g></g><g fill="#000000" fill-opacity="1"><g transform="translate(99.267766, 39.128847)"><g><path d="M 0.640625 -3.1875 L 0.640625 -6.859375 C 0.640625 -7.984375 0.945312 -8.804688 1.5625 -9.328125 C 2.175781 -9.859375 3 -10.125 4.03125 -10.125 C 5.0625 -10.125 5.882812 -9.859375 6.5 -9.328125 C 7.125 -8.804688 7.4375 -7.984375 7.4375 -6.859375 L 7.4375 -3.1875 C 7.4375 -2.0625 7.125 -1.234375 6.5 -0.703125 C 5.882812 -0.179688 5.0625 0.078125 4.03125 0.078125 C 3 0.078125 2.175781 -0.179688 1.5625 -0.703125 C 0.945312 -1.234375 0.640625 -2.0625 0.640625 -3.1875 Z M 2.796875 -3.1875 C 2.796875 -2.257812 3.207031 -1.796875 4.03125 -1.796875 C 4.863281 -1.796875 5.28125 -2.257812 5.28125 -3.1875 L 5.28125 -6.859375 C 5.28125 -7.773438 4.863281 -8.234375 4.03125 -8.234375 C 3.207031 -8.234375 2.796875 -7.773438 2.796875 -6.859375 Z M 2.796875 -3.1875 "/></g></g></g><g fill="#000000" fill-opacity="1"><g transform="translate(108.720179, 39.128847)"><g><path d="M 0.75 -0.671875 L 0.75 -9.46875 C 0.75 -9.675781 0.851562 -9.835938 1.0625 -9.953125 C 1.28125 -10.066406 1.535156 -10.125 1.828125 -10.125 C 2.117188 -10.125 2.367188 -10.066406 2.578125 -9.953125 C 2.796875 -9.835938 2.90625 -9.675781 2.90625 -9.46875 L 2.90625 -1.875 L 6.0625 -1.875 C 6.257812 -1.875 6.410156 -1.78125 6.515625 -1.59375 C 6.628906 -1.414062 6.6875 -1.195312 6.6875 -0.9375 C 6.6875 -0.675781 6.628906 -0.453125 6.515625 -0.265625 C 6.410156 -0.0859375 6.257812 0 6.0625 0 L 1.6875 0 C 1.425781 0 1.203125 -0.0546875 1.015625 -0.171875 C 0.835938 -0.285156 0.75 -0.453125 0.75 -0.671875 Z M 0.75 -0.671875 "/></g></g></g><g fill="#000000" fill-opacity="1"><g transform="translate(116.913248, 39.128847)"><g><path d="M 0.640625 -3.1875 L 0.640625 -6.859375 C 0.640625 -7.984375 0.945312 -8.804688 1.5625 -9.328125 C 2.175781 -9.859375 2.972656 -10.125 3.953125 -10.125 C 4.972656 -10.125 5.804688 -9.878906 6.453125 -9.390625 C 7.109375 -8.898438 7.4375 -8.222656 7.4375 -7.359375 C 7.4375 -6.960938 7.351562 -6.691406 7.1875 -6.546875 C 7.019531 -6.410156 6.742188 -6.34375 6.359375 -6.34375 C 5.660156 -6.34375 5.300781 -6.554688 5.28125 -6.984375 C 5.25 -7.816406 4.835938 -8.234375 4.046875 -8.234375 C 3.210938 -8.234375 2.796875 -7.773438 2.796875 -6.859375 L 2.796875 -3.1875 C 2.796875 -2.257812 3.21875 -1.796875 4.0625 -1.796875 C 4.3125 -1.796875 4.519531 -1.835938 4.6875 -1.921875 C 4.863281 -2.003906 4.988281 -2.128906 5.0625 -2.296875 C 5.132812 -2.472656 5.179688 -2.613281 5.203125 -2.71875 C 5.234375 -2.832031 5.257812 -2.988281 5.28125 -3.1875 C 5.3125 -3.613281 5.664062 -3.828125 6.34375 -3.828125 C 6.738281 -3.828125 7.019531 -3.753906 7.1875 -3.609375 C 7.351562 -3.472656 7.4375 -3.207031 7.4375 -2.8125 C 7.4375 -1.914062 7.109375 -1.207031 6.453125 -0.6875 C 5.804688 -0.175781 4.972656 0.078125 3.953125 0.078125 C 2.972656 0.078125 2.175781 -0.179688 1.5625 -0.703125 C 0.945312 -1.234375 0.640625 -2.0625 0.640625 -3.1875 Z M 0.640625 -3.1875 "/></g></g></g><g fill="#000000" fill-opacity="1"><g transform="translate(126.075043, 39.128847)"><g><path d="M 0.75 -0.671875 L 0.75 -9.46875 C 0.75 -9.675781 0.851562 -9.835938 1.0625 -9.953125 C 1.28125 -10.066406 1.535156 -10.125 1.828125 -10.125 C 2.117188 -10.125 2.367188 -10.066406 2.578125 -9.953125 C 2.796875 -9.835938 2.90625 -9.675781 2.90625 -9.46875 L 2.90625 -6.078125 L 5.65625 -6.078125 L 5.65625 -9.46875 C 5.65625 -9.675781 5.757812 -9.835938 5.96875 -9.953125 C 6.1875 -10.066406 6.441406 -10.125 6.734375 -10.125 C 7.035156 -10.125 7.289062 -10.066406 7.5 -9.953125 C 7.71875 -9.835938 7.828125 -9.675781 7.828125 -9.46875 L 7.828125 -0.671875 C 7.828125 -0.453125 7.71875 -0.285156 7.5 -0.171875 C 7.289062 -0.0546875 7.035156 0 6.734375 0 C 6.441406 0 6.1875 -0.0546875 5.96875 -0.171875 C 5.757812 -0.285156 5.65625 -0.453125 5.65625 -0.671875 L 5.65625 -4.421875 L 2.90625 -4.421875 L 2.90625 -0.671875 C 2.90625 -0.453125 2.796875 -0.285156 2.578125 -0.171875 C 2.367188 -0.0546875 2.117188 0 1.828125 0 C 1.535156 0 1.28125 -0.0546875 1.0625 -0.171875 C 0.851562 -0.285156 0.75 -0.453125 0.75 -0.671875 Z M 0.75 -0.671875 "/></g></g></g><g fill="#000000" fill-opacity="1"><g transform="translate(136.025659, 39.128847)"><g><path d="M 0.640625 -3.1875 L 0.640625 -6.859375 C 0.640625 -7.984375 0.945312 -8.804688 1.5625 -9.328125 C 2.175781 -9.859375 3 -10.125 4.03125 -10.125 C 5.0625 -10.125 5.882812 -9.859375 6.5 -9.328125 C 7.125 -8.804688 7.4375 -7.984375 7.4375 -6.859375 L 7.4375 -3.1875 C 7.4375 -2.0625 7.125 -1.234375 6.5 -0.703125 C 5.882812 -0.179688 5.0625 0.078125 4.03125 0.078125 C 3 0.078125 2.175781 -0.179688 1.5625 -0.703125 C 0.945312 -1.234375 0.640625 -2.0625 0.640625 -3.1875 Z M 2.796875 -3.1875 C 2.796875 -2.257812 3.207031 -1.796875 4.03125 -1.796875 C 4.863281 -1.796875 5.28125 -2.257812 5.28125 -3.1875 L 5.28125 -6.859375 C 5.28125 -7.773438 4.863281 -8.234375 4.03125 -8.234375 C 3.207031 -8.234375 2.796875 -7.773438 2.796875 -6.859375 Z M 2.796875 -3.1875 "/></g></g></g><g fill="#000000" fill-opacity="1"><g transform="translate(145.478072, 39.128847)"><g><path d="M 0.75 -0.671875 L 0.75 -9.453125 C 0.75 -9.671875 0.851562 -9.835938 1.0625 -9.953125 C 1.28125 -10.066406 1.535156 -10.125 1.828125 -10.125 C 2.242188 -10.125 2.550781 -10.0625 2.75 -9.9375 C 2.945312 -9.820312 3.171875 -9.523438 3.421875 -9.046875 L 5.65625 -4.765625 L 5.65625 -9.46875 C 5.65625 -9.675781 5.757812 -9.835938 5.96875 -9.953125 C 6.1875 -10.066406 6.441406 -10.125 6.734375 -10.125 C 7.035156 -10.125 7.289062 -10.066406 7.5 -9.953125 C 7.71875 -9.835938 7.828125 -9.675781 7.828125 -9.46875 L 7.828125 -0.671875 C 7.828125 -0.453125 7.71875 -0.285156 7.5 -0.171875 C 7.289062 -0.0546875 7.035156 0 6.734375 0 C 6.148438 0 5.75 -0.191406 5.53125 -0.578125 L 2.90625 -5.375 L 2.90625 -0.671875 C 2.90625 -0.453125 2.796875 -0.285156 2.578125 -0.171875 C 2.367188 -0.0546875 2.117188 0 1.828125 0 C 1.535156 0 1.28125 -0.0546875 1.0625 -0.171875 C 0.851562 -0.285156 0.75 -0.453125 0.75 -0.671875 Z M 0.75 -0.671875 "/></g></g></g><g fill="#000000" fill-opacity="1"><g transform="translate(155.428688, 39.128847)"><g><path d="M 0.75 -0.671875 L 0.75 -9.453125 C 0.75 -9.671875 0.835938 -9.835938 1.015625 -9.953125 C 1.203125 -10.066406 1.425781 -10.125 1.6875 -10.125 L 6.625 -10.125 C 6.832031 -10.125 6.988281 -10.03125 7.09375 -9.84375 C 7.207031 -9.65625 7.265625 -9.4375 7.265625 -9.1875 C 7.265625 -8.925781 7.207031 -8.703125 7.09375 -8.515625 C 6.976562 -8.328125 6.820312 -8.234375 6.625 -8.234375 L 2.90625 -8.234375 L 2.90625 -5.890625 L 4.984375 -5.890625 C 5.179688 -5.890625 5.335938 -5.804688 5.453125 -5.640625 C 5.578125 -5.484375 5.640625 -5.285156 5.640625 -5.046875 C 5.640625 -4.835938 5.582031 -4.648438 5.46875 -4.484375 C 5.351562 -4.316406 5.191406 -4.234375 4.984375 -4.234375 L 2.90625 -4.234375 L 2.90625 -1.875 L 6.625 -1.875 C 6.820312 -1.875 6.976562 -1.78125 7.09375 -1.59375 C 7.207031 -1.414062 7.265625 -1.191406 7.265625 -0.921875 C 7.265625 -0.671875 7.207031 -0.453125 7.09375 -0.265625 C 6.988281 -0.0859375 6.832031 0 6.625 0 L 1.6875 0 C 1.425781 0 1.203125 -0.0546875 1.015625 -0.171875 C 0.835938 -0.285156 0.75 -0.453125 0.75 -0.671875 Z M 0.75 -0.671875 "/></g></g></g><g fill="#000000" fill-opacity="1"><g transform="translate(164.272185, 39.128847)"><g><path d="M 0.265625 -1.65625 C 0.265625 -1.914062 0.359375 -2.175781 0.546875 -2.4375 C 0.734375 -2.695312 0.953125 -2.828125 1.203125 -2.828125 C 1.335938 -2.828125 1.488281 -2.769531 1.65625 -2.65625 C 1.832031 -2.550781 1.992188 -2.4375 2.140625 -2.3125 C 2.285156 -2.1875 2.484375 -2.066406 2.734375 -1.953125 C 2.992188 -1.847656 3.269531 -1.796875 3.5625 -1.796875 C 3.914062 -1.796875 4.226562 -1.867188 4.5 -2.015625 C 4.769531 -2.171875 4.90625 -2.398438 4.90625 -2.703125 C 4.90625 -3.015625 4.753906 -3.285156 4.453125 -3.515625 C 4.148438 -3.742188 3.785156 -3.953125 3.359375 -4.140625 C 2.929688 -4.335938 2.5 -4.550781 2.0625 -4.78125 C 1.625 -5.019531 1.253906 -5.351562 0.953125 -5.78125 C 0.660156 -6.21875 0.515625 -6.738281 0.515625 -7.34375 C 0.515625 -8.300781 0.859375 -9.015625 1.546875 -9.484375 C 2.242188 -9.960938 3.082031 -10.203125 4.0625 -10.203125 C 4.300781 -10.203125 4.550781 -10.1875 4.8125 -10.15625 C 5.070312 -10.132812 5.363281 -10.082031 5.6875 -10 C 6.019531 -9.925781 6.289062 -9.800781 6.5 -9.625 C 6.707031 -9.445312 6.8125 -9.234375 6.8125 -8.984375 C 6.8125 -8.742188 6.734375 -8.492188 6.578125 -8.234375 C 6.429688 -7.972656 6.222656 -7.84375 5.953125 -7.84375 C 5.835938 -7.84375 5.597656 -7.929688 5.234375 -8.109375 C 4.878906 -8.285156 4.488281 -8.375 4.0625 -8.375 C 3.59375 -8.375 3.242188 -8.289062 3.015625 -8.125 C 2.785156 -7.96875 2.671875 -7.773438 2.671875 -7.546875 C 2.671875 -7.328125 2.78125 -7.128906 3 -6.953125 C 3.21875 -6.785156 3.488281 -6.640625 3.8125 -6.515625 C 4.132812 -6.390625 4.484375 -6.226562 4.859375 -6.03125 C 5.242188 -5.832031 5.597656 -5.613281 5.921875 -5.375 C 6.242188 -5.144531 6.515625 -4.816406 6.734375 -4.390625 C 6.953125 -3.960938 7.0625 -3.476562 7.0625 -2.9375 C 7.0625 -1.96875 6.742188 -1.210938 6.109375 -0.671875 C 5.472656 -0.128906 4.632812 0.140625 3.59375 0.140625 C 2.695312 0.140625 1.914062 -0.0390625 1.25 -0.40625 C 0.59375 -0.78125 0.265625 -1.195312 0.265625 -1.65625 Z M 0.265625 -1.65625 "/></g></g></g><g fill="#000000" fill-opacity="1"><g transform="translate(101.294804, 52.823749)"><g><path d="M 0.75 -0.671875 L 0.75 -9.453125 C 0.75 -9.671875 0.835938 -9.835938 1.015625 -9.953125 C 1.203125 -10.066406 1.425781 -10.125 1.6875 -10.125 L 6.5 -10.125 C 6.707031 -10.125 6.863281 -10.03125 6.96875 -9.84375 C 7.082031 -9.65625 7.140625 -9.4375 7.140625 -9.1875 C 7.140625 -8.925781 7.082031 -8.703125 6.96875 -8.515625 C 6.851562 -8.328125 6.695312 -8.234375 6.5 -8.234375 L 2.90625 -8.234375 L 2.90625 -5.890625 L 5 -5.890625 C 5.195312 -5.890625 5.351562 -5.804688 5.46875 -5.640625 C 5.582031 -5.484375 5.640625 -5.285156 5.640625 -5.046875 C 5.640625 -4.835938 5.582031 -4.648438 5.46875 -4.484375 C 5.363281 -4.316406 5.207031 -4.234375 5 -4.234375 L 2.90625 -4.234375 L 2.90625 -0.671875 C 2.90625 -0.453125 2.796875 -0.285156 2.578125 -0.171875 C 2.367188 -0.0546875 2.117188 0 1.828125 0 C 1.535156 0 1.28125 -0.0546875 1.0625 -0.171875 C 0.851562 -0.285156 0.75 -0.453125 0.75 -0.671875 Z M 0.75 -0.671875 "/></g></g></g><g fill="#000000" fill-opacity="1"><g transform="translate(109.806167, 52.823749)"><g><path d="M 0.0625 -0.890625 C 0.0625 -0.910156 0.0664062 -0.957031 0.078125 -1.03125 L 2.65625 -9.484375 C 2.726562 -9.710938 2.894531 -9.890625 3.15625 -10.015625 C 3.425781 -10.140625 3.726562 -10.203125 4.0625 -10.203125 C 4.40625 -10.203125 4.707031 -10.140625 4.96875 -10.015625 C 5.238281 -9.890625 5.410156 -9.710938 5.484375 -9.484375 L 8.078125 -1.03125 C 8.085938 -0.957031 8.09375 -0.910156 8.09375 -0.890625 C 8.09375 -0.648438 7.941406 -0.441406 7.640625 -0.265625 C 7.347656 -0.0859375 7.039062 0 6.71875 0 C 6.320312 0 6.085938 -0.132812 6.015625 -0.40625 L 5.53125 -2.125 L 2.609375 -2.125 L 2.140625 -0.40625 C 2.066406 -0.132812 1.832031 0 1.4375 0 C 1.113281 0 0.800781 -0.0859375 0.5 -0.265625 C 0.207031 -0.441406 0.0625 -0.648438 0.0625 -0.890625 Z M 3.0625 -3.796875 L 5.078125 -3.796875 L 4.0625 -7.5 Z M 3.0625 -3.796875 "/></g></g></g><g fill="#000000" fill-opacity="1"><g transform="translate(119.341613, 52.823749)"><g><path d="M 0.75 -0.65625 L 0.75 -9.453125 C 0.75 -9.671875 0.835938 -9.835938 1.015625 -9.953125 C 1.203125 -10.066406 1.425781 -10.125 1.6875 -10.125 L 4.53125 -10.125 C 6.375 -10.125 7.296875 -9.300781 7.296875 -7.65625 C 7.296875 -6.550781 6.90625 -5.828125 6.125 -5.484375 C 6.59375 -5.304688 6.945312 -5.050781 7.1875 -4.71875 C 7.425781 -4.394531 7.546875 -3.910156 7.546875 -3.265625 L 7.546875 -2.96875 C 7.546875 -1.9375 7.289062 -1.179688 6.78125 -0.703125 C 6.28125 -0.234375 5.609375 0 4.765625 0 L 1.6875 0 C 1.40625 0 1.175781 -0.0625 1 -0.1875 C 0.832031 -0.320312 0.75 -0.476562 0.75 -0.65625 Z M 2.890625 -1.875 L 4.28125 -1.875 C 5.019531 -1.875 5.390625 -2.300781 5.390625 -3.15625 L 5.390625 -3.375 C 5.390625 -4.226562 5.019531 -4.65625 4.28125 -4.65625 L 2.890625 -4.65625 Z M 2.890625 -6.3125 L 4.34375 -6.3125 C 4.59375 -6.3125 4.785156 -6.40625 4.921875 -6.59375 C 5.066406 -6.78125 5.140625 -7.003906 5.140625 -7.265625 C 5.140625 -7.523438 5.066406 -7.75 4.921875 -7.9375 C 4.785156 -8.132812 4.59375 -8.234375 4.34375 -8.234375 L 2.890625 -8.234375 Z M 2.890625 -6.3125 "/></g></g></g><g fill="#000000" fill-opacity="1"><g transform="translate(128.641796, 52.823749)"><g><path d="M 0.75 -0.671875 L 0.75 -9.46875 C 0.75 -9.644531 0.8125 -9.796875 0.9375 -9.921875 C 1.0625 -10.054688 1.21875 -10.125 1.40625 -10.125 L 4.28125 -10.125 C 6.550781 -10.125 7.6875 -9.132812 7.6875 -7.15625 C 7.6875 -5.71875 7.128906 -4.78125 6.015625 -4.34375 L 7.703125 -1.28125 C 7.742188 -1.21875 7.765625 -1.132812 7.765625 -1.03125 C 7.765625 -0.769531 7.617188 -0.519531 7.328125 -0.28125 C 7.035156 -0.0390625 6.726562 0.078125 6.40625 0.078125 C 6.082031 0.078125 5.851562 -0.0507812 5.71875 -0.3125 L 3.828125 -4 L 2.90625 -4 L 2.90625 -0.671875 C 2.90625 -0.453125 2.796875 -0.285156 2.578125 -0.171875 C 2.367188 -0.0546875 2.117188 0 1.828125 0 C 1.535156 0 1.28125 -0.0546875 1.0625 -0.171875 C 0.851562 -0.285156 0.75 -0.453125 0.75 -0.671875 Z M 2.90625 -5.65625 L 4.28125 -5.65625 C 4.6875 -5.65625 4.992188 -5.753906 5.203125 -5.953125 C 5.421875 -6.148438 5.53125 -6.476562 5.53125 -6.9375 C 5.53125 -7.40625 5.421875 -7.738281 5.203125 -7.9375 C 4.992188 -8.132812 4.6875 -8.234375 4.28125 -8.234375 L 2.90625 -8.234375 Z M 2.90625 -5.65625 "/></g></g></g><g fill="#000000" fill-opacity="1"><g transform="translate(138.108049, 52.823749)"><g><path d="M 0.75 -0.671875 L 0.75 -9.46875 C 0.75 -9.675781 0.851562 -9.835938 1.0625 -9.953125 C 1.28125 -10.066406 1.535156 -10.125 1.828125 -10.125 C 2.117188 -10.125 2.367188 -10.066406 2.578125 -9.953125 C 2.796875 -9.835938 2.90625 -9.675781 2.90625 -9.46875 L 2.90625 -0.671875 C 2.90625 -0.453125 2.796875 -0.285156 2.578125 -0.171875 C 2.367188 -0.0546875 2.117188 0 1.828125 0 C 1.535156 0 1.28125 -0.0546875 1.0625 -0.171875 C 0.851562 -0.285156 0.75 -0.453125 0.75 -0.671875 Z M 0.75 -0.671875 "/></g></g></g><g fill="#000000" fill-opacity="1"><g transform="translate(143.145836, 52.823749)"><g><path d="M 0.640625 -3.1875 L 0.640625 -6.859375 C 0.640625 -7.984375 0.945312 -8.804688 1.5625 -9.328125 C 2.175781 -9.859375 2.972656 -10.125 3.953125 -10.125 C 4.972656 -10.125 5.804688 -9.878906 6.453125 -9.390625 C 7.109375 -8.898438 7.4375 -8.222656 7.4375 -7.359375 C 7.4375 -6.960938 7.351562 -6.691406 7.1875 -6.546875 C 7.019531 -6.410156 6.742188 -6.34375 6.359375 -6.34375 C 5.660156 -6.34375 5.300781 -6.554688 5.28125 -6.984375 C 5.25 -7.816406 4.835938 -8.234375 4.046875 -8.234375 C 3.210938 -8.234375 2.796875 -7.773438 2.796875 -6.859375 L 2.796875 -3.1875 C 2.796875 -2.257812 3.21875 -1.796875 4.0625 -1.796875 C 4.3125 -1.796875 4.519531 -1.835938 4.6875 -1.921875 C 4.863281 -2.003906 4.988281 -2.128906 5.0625 -2.296875 C 5.132812 -2.472656 5.179688 -2.613281 5.203125 -2.71875 C 5.234375 -2.832031 5.257812 -2.988281 5.28125 -3.1875 C 5.3125 -3.613281 5.664062 -3.828125 6.34375 -3.828125 C 6.738281 -3.828125 7.019531 -3.753906 7.1875 -3.609375 C 7.351562 -3.472656 7.4375 -3.207031 7.4375 -2.8125 C 7.4375 -1.914062 7.109375 -1.207031 6.453125 -0.6875 C 5.804688 -0.175781 4.972656 0.078125 3.953125 0.078125 C 2.972656 0.078125 2.175781 -0.179688 1.5625 -0.703125 C 0.945312 -1.234375 0.640625 -2.0625 0.640625 -3.1875 Z M 0.640625 -3.1875 "/></g></g></g><g fill="#000000" fill-opacity="1"><g transform="translate(152.307632, 52.823749)"><g><path d="M 0.0625 -0.890625 C 0.0625 -0.910156 0.0664062 -0.957031 0.078125 -1.03125 L 2.65625 -9.484375 C 2.726562 -9.710938 2.894531 -9.890625 3.15625 -10.015625 C 3.425781 -10.140625 3.726562 -10.203125 4.0625 -10.203125 C 4.40625 -10.203125 4.707031 -10.140625 4.96875 -10.015625 C 5.238281 -9.890625 5.410156 -9.710938 5.484375 -9.484375 L 8.078125 -1.03125 C 8.085938 -0.957031 8.09375 -0.910156 8.09375 -0.890625 C 8.09375 -0.648438 7.941406 -0.441406 7.640625 -0.265625 C 7.347656 -0.0859375 7.039062 0 6.71875 0 C 6.320312 0 6.085938 -0.132812 6.015625 -0.40625 L 5.53125 -2.125 L 2.609375 -2.125 L 2.140625 -0.40625 C 2.066406 -0.132812 1.832031 0 1.4375 0 C 1.113281 0 0.800781 -0.0859375 0.5 -0.265625 C 0.207031 -0.441406 0.0625 -0.648438 0.0625 -0.890625 Z M 3.0625 -3.796875 L 5.078125 -3.796875 L 4.0625 -7.5 Z M 3.0625 -3.796875 "/></g></g></g><g fill="#000000" fill-opacity="1"><g transform="translate(120.002796, 59.045496)"><g><path d="M 1.28125 -2.6875 C 1.6875 -2.6875 2.035156 -2.585938 2.328125 -2.390625 L 2.078125 -1.859375 C 1.941406 -1.941406 1.789062 -2.007812 1.625 -2.0625 C 1.46875 -2.113281 1.335938 -2.140625 1.234375 -2.140625 C 1.035156 -2.140625 0.9375 -2.078125 0.9375 -1.953125 C 0.9375 -1.867188 0.984375 -1.800781 1.078125 -1.75 C 1.171875 -1.695312 1.285156 -1.648438 1.421875 -1.609375 C 1.566406 -1.578125 1.707031 -1.535156 1.84375 -1.484375 C 1.976562 -1.429688 2.09375 -1.347656 2.1875 -1.234375 C 2.289062 -1.117188 2.34375 -0.972656 2.34375 -0.796875 C 2.34375 -0.535156 2.242188 -0.332031 2.046875 -0.1875 C 1.847656 -0.0507812 1.59375 0.015625 1.28125 0.015625 C 1.0625 0.015625 0.84375 -0.0195312 0.625 -0.09375 C 0.40625 -0.164062 0.21875 -0.269531 0.0625 -0.40625 L 0.328125 -0.921875 C 0.460938 -0.804688 0.617188 -0.710938 0.796875 -0.640625 C 0.984375 -0.566406 1.144531 -0.53125 1.28125 -0.53125 C 1.394531 -0.53125 1.476562 -0.546875 1.53125 -0.578125 C 1.59375 -0.617188 1.625 -0.675781 1.625 -0.75 C 1.625 -0.820312 1.585938 -0.882812 1.515625 -0.9375 C 1.453125 -0.988281 1.367188 -1.023438 1.265625 -1.046875 C 1.160156 -1.066406 1.046875 -1.097656 0.921875 -1.140625 C 0.804688 -1.179688 0.695312 -1.226562 0.59375 -1.28125 C 0.488281 -1.332031 0.398438 -1.410156 0.328125 -1.515625 C 0.265625 -1.617188 0.234375 -1.742188 0.234375 -1.890625 C 0.234375 -2.128906 0.328125 -2.320312 0.515625 -2.46875 C 0.710938 -2.613281 0.96875 -2.6875 1.28125 -2.6875 Z M 1.28125 -2.6875 "/></g></g></g><g fill="#000000" fill-opacity="1"><g transform="translate(123.020013, 59.045496)"><g><path d="M 2.03125 -0.484375 L 0.875 -0.484375 L 0.671875 0 L -0.015625 0 L 1.125 -2.65625 L 1.828125 -2.65625 L 2.9375 0 L 2.21875 0 Z M 1.828125 -1 L 1.453125 -1.984375 L 1.0625 -1 Z M 1.828125 -1 "/></g></g></g><g fill="#000000" fill-opacity="1"><g transform="translate(126.515279, 59.045496)"><g><path d="M 2.71875 0 L 2.125 0 L 0.90625 -1.640625 L 0.90625 0 L 0.265625 0 L 0.265625 -2.65625 L 0.859375 -2.65625 L 2.09375 -1.015625 L 2.09375 -2.65625 L 2.71875 -2.65625 Z M 2.71875 0 "/></g></g></g><g fill="#000000" fill-opacity="1"><g transform="translate(130.071249, 59.045496)"><g/></g></g><g fill="#000000" fill-opacity="1"><g transform="translate(131.525308, 59.045496)"><g><path d="M 0.9375 -0.5625 L 2.0625 -0.5625 L 2.0625 0 L 0.265625 0 L 0.265625 -2.65625 L 0.9375 -2.65625 Z M 0.9375 -0.5625 "/></g></g></g><g fill="#000000" fill-opacity="1"><g transform="translate(134.223822, 59.045496)"><g><path d="M 2.65625 -2.65625 L 2.65625 -1.109375 C 2.65625 -0.765625 2.546875 -0.488281 2.328125 -0.28125 C 2.109375 -0.0703125 1.816406 0.03125 1.453125 0.03125 C 1.078125 0.03125 0.773438 -0.0703125 0.546875 -0.28125 C 0.328125 -0.488281 0.21875 -0.765625 0.21875 -1.109375 L 0.21875 -2.65625 L 0.890625 -2.65625 L 0.890625 -1.109375 C 0.890625 -0.929688 0.941406 -0.789062 1.046875 -0.6875 C 1.148438 -0.582031 1.285156 -0.53125 1.453125 -0.53125 C 1.609375 -0.53125 1.734375 -0.582031 1.828125 -0.6875 C 1.929688 -0.789062 1.984375 -0.929688 1.984375 -1.109375 L 1.984375 -2.65625 Z M 2.65625 -2.65625 "/></g></g></g><g fill="#000000" fill-opacity="1"><g transform="translate(137.673561, 59.045496)"><g><path d="M 0.9375 0 L 0.265625 0 L 0.265625 -2.65625 L 0.9375 -2.65625 Z M 0.9375 0 "/></g></g></g><g fill="#000000" fill-opacity="1"><g transform="translate(139.453911, 59.045496)"><g><path d="M 1.28125 -2.6875 C 1.6875 -2.6875 2.035156 -2.585938 2.328125 -2.390625 L 2.078125 -1.859375 C 1.941406 -1.941406 1.789062 -2.007812 1.625 -2.0625 C 1.46875 -2.113281 1.335938 -2.140625 1.234375 -2.140625 C 1.035156 -2.140625 0.9375 -2.078125 0.9375 -1.953125 C 0.9375 -1.867188 0.984375 -1.800781 1.078125 -1.75 C 1.171875 -1.695312 1.285156 -1.648438 1.421875 -1.609375 C 1.566406 -1.578125 1.707031 -1.535156 1.84375 -1.484375 C 1.976562 -1.429688 2.09375 -1.347656 2.1875 -1.234375 C 2.289062 -1.117188 2.34375 -0.972656 2.34375 -0.796875 C 2.34375 -0.535156 2.242188 -0.332031 2.046875 -0.1875 C 1.847656 -0.0507812 1.59375 0.015625 1.28125 0.015625 C 1.0625 0.015625 0.84375 -0.0195312 0.625 -0.09375 C 0.40625 -0.164062 0.21875 -0.269531 0.0625 -0.40625 L 0.328125 -0.921875 C 0.460938 -0.804688 0.617188 -0.710938 0.796875 -0.640625 C 0.984375 -0.566406 1.144531 -0.53125 1.28125 -0.53125 C 1.394531 -0.53125 1.476562 -0.546875 1.53125 -0.578125 C 1.59375 -0.617188 1.625 -0.675781 1.625 -0.75 C 1.625 -0.820312 1.585938 -0.882812 1.515625 -0.9375 C 1.453125 -0.988281 1.367188 -1.023438 1.265625 -1.046875 C 1.160156 -1.066406 1.046875 -1.097656 0.921875 -1.140625 C 0.804688 -1.179688 0.695312 -1.226562 0.59375 -1.28125 C 0.488281 -1.332031 0.398438 -1.410156 0.328125 -1.515625 C 0.265625 -1.617188 0.234375 -1.742188 0.234375 -1.890625 C 0.234375 -2.128906 0.328125 -2.320312 0.515625 -2.46875 C 0.710938 -2.613281 0.96875 -2.6875 1.28125 -2.6875 Z M 1.28125 -2.6875 "/></g></g></g></svg>